<?xml version="1.0" encoding="UTF-8" standalone="no"?>
<!-- Created with Inkscape (http://www.inkscape.org/) -->

<svg
   xmlns:dc="http://purl.org/dc/elements/1.1/"
   xmlns:cc="http://creativecommons.org/ns#"
   xmlns:rdf="http://www.w3.org/1999/02/22-rdf-syntax-ns#"
   xmlns:svg="http://www.w3.org/2000/svg"
   xmlns="http://www.w3.org/2000/svg"
   xmlns:sodipodi="http://sodipodi.sourceforge.net/DTD/sodipodi-0.dtd"
   xmlns:inkscape="http://www.inkscape.org/namespaces/inkscape"
   width="500"
   height="500"
   viewBox="0 0 132.29166 132.29167"
   version="1.1"
   id="svg8"
   inkscape:version="0.92.1 r15371"
   sodipodi:docname="icon.svg">
  <defs
     id="defs2" />
  <sodipodi:namedview
     id="base"
     pagecolor="#ffffff"
     bordercolor="#666666"
     borderopacity="1.0"
     inkscape:pageopacity="0.0"
     inkscape:pageshadow="2"
     inkscape:zoom="0.35"
     inkscape:cx="464.51942"
     inkscape:cy="311.2488"
     inkscape:document-units="mm"
     inkscape:current-layer="layer1"
     showgrid="false"
     units="px"
     inkscape:window-width="1039"
     inkscape:window-height="578"
     inkscape:window-x="709"
     inkscape:window-y="347"
     inkscape:window-maximized="0" />
  <metadata
     id="metadata5">
    <rdf:RDF>
      <cc:Work
         rdf:about="">
        <dc:format>image/svg+xml</dc:format>
        <dc:type
           rdf:resource="http://purl.org/dc/dcmitype/StillImage" />
        <dc:title></dc:title>
      </cc:Work>
    </rdf:RDF>
  </metadata>
  <g
     inkscape:label="Layer 1"
     inkscape:groupmode="layer"
     id="layer1"
     transform="translate(0,-164.70832)">
    <g
       id="g4547"
       transform="matrix(4.6250836,0,0,4.6250836,-239.78417,-831.97072)"
       inkscape:export-xdpi="102.74"
       inkscape:export-ydpi="102.74">
      <path
         transform="matrix(0.26458333,0,0,0.26458333,0,164.70832)"
         id="path4526"
         d="m 250,195.49219 h -41.22266 c -5.14428,0 -9.28515,4.14087 -9.28515,9.28515 v 82.44532 c 0,5.14428 4.14087,9.28515 9.28515,9.28515 H 250 Z"
         style="opacity:1;fill:#ff7f2a;fill-opacity:1;stroke:none;stroke-width:1.00157475;stroke-linejoin:miter;stroke-miterlimit:4;stroke-dasharray:none;stroke-dashoffset:0"
         inkscape:connector-curvature="0" />
      <rect
         ry="2.4568453"
         y="216.43236"
         x="52.782356"
         height="26.726952"
         width="26.726952"
         id="rect4517"
         style="opacity:1;fill:#ff7f2a;fill-opacity:1;stroke:none;stroke-width:0.26499999;stroke-linejoin:miter;stroke-miterlimit:4;stroke-dasharray:none;stroke-dashoffset:0" />
      <g
         style="fill:#28170b"
         id="g4537">
        <path
           inkscape:connector-curvature="0"
           id="path4528"
           style="font-style:normal;font-variant:normal;font-weight:normal;font-stretch:normal;font-size:medium;line-height:1.25;font-family:Aharoni;-inkscape-font-specification:Aharoni;letter-spacing:0px;word-spacing:0px;fill:#28170b;fill-opacity:1;stroke:none;stroke-width:1.14899182"
           d="m 64.533802,227.50373 q 0,0.62087 -0.0748,1.01734 -0.157089,0.84528 -0.90513,1.526 -0.964974,0.88269 -2.356331,0.88269 -1.645692,0 -2.663028,-1.51104 l 1.735456,-1.77286 q 0.119687,0.99489 0.867728,0.99489 0.763003,0 0.748042,-1.1819 l -0.0075,-0.56103 v -6.4556 h 2.655547 z" />
        <path
           inkscape:connector-curvature="0"
           id="path4530"
           style="font-style:normal;font-variant:normal;font-weight:normal;font-stretch:normal;font-size:medium;line-height:1.25;font-family:Aharoni;-inkscape-font-specification:Aharoni;letter-spacing:0px;word-spacing:0px;fill:#28170b;fill-opacity:1;stroke:none;stroke-width:1.14899182"
           d="m 73.757155,227.27184 q 0,2.58822 -2.274046,3.37366 -0.792924,0.27678 -1.705535,0.27678 -1.914986,0 -3.553197,-1.15946 l 1.137023,-2.1394 q 1.196866,1.07718 2.34137,1.07718 0.516149,0 0.875209,-0.23938 0.418903,-0.26929 0.418903,-0.763 0,-0.44882 -0.463786,-0.74804 -0.344099,-0.22441 -1.159464,-0.45631 -0.987415,-0.29173 -1.241749,-0.40394 -0.403943,-0.17205 -0.688199,-0.40394 -0.815365,-0.67324 -0.815365,-2.03467 0,-1.42128 0.845287,-2.35634 0.987415,-1.09962 2.633106,-1.09962 1.653172,0 3.239021,0.83033 l -1.06222,2.06459 q -0.867728,-0.67323 -1.750417,-0.67323 -0.426384,0 -0.763002,0.21693 -0.381502,0.24685 -0.381502,0.65828 0,0.40394 0.501188,0.69567 0.224413,0.13465 1.346475,0.46379 1.406318,0.41142 2.004752,1.16694 0.516148,0.64332 0.516148,1.65318 z" />
      </g>
      <text
         id="text4515"
         y="238.93689"
         x="56.864624"
         style="font-style:normal;font-weight:normal;font-size:7.49671412px;line-height:1.25;font-family:sans-serif;letter-spacing:0px;word-spacing:0px;fill:#f4e3d7;fill-opacity:1;stroke:none;stroke-width:0.56225353"
         xml:space="preserve"><tspan
           style="fill:#f4e3d7;stroke-width:0.56225353"
           y="238.93689"
           x="56.864624"
           id="tspan4513"
           sodipodi:role="line">Tools</tspan></text>
      <path
         transform="matrix(0.26458333,0,0,0.26458333,0,164.70832)"
         id="rect4519"
         d="m 250,195.49219 v 101.01562 h 41.22266 c 5.14428,0 9.28515,-4.14087 9.28515,-9.28515 v -82.44532 c 0,-5.14428 -4.14087,-9.28515 -9.28515,-9.28515 z"
         style="opacity:0.2;fill:#000000;fill-opacity:1;stroke:none;stroke-width:1.00157475;stroke-linejoin:miter;stroke-miterlimit:4;stroke-dasharray:none;stroke-dashoffset:0"
         inkscape:connector-curvature="0" />
    </g>
  </g>
</svg>
